<?xml version="1.0" standalone="no"?>
<!DOCTYPE svg PUBLIC "-//W3C//DTD SVG 20010904//EN"
 "http://www.w3.org/TR/2001/REC-SVG-20010904/DTD/svg10.dtd">
<svg version="1.0" xmlns="http://www.w3.org/2000/svg"
 width="488.000000pt" height="488.000000pt" viewBox="0 0 488.000000 488.000000"
 preserveAspectRatio="xMidYMid meet">

<g transform="translate(0.000000,488.000000) scale(0.100000,-0.100000)"
fill="#000000" stroke="none">
<path d="M2245 4834 c-533 -56 -987 -248 -1375 -582 -351 -302 -606 -702 -739
-1158 -62 -212 -86 -393 -86 -654 0 -217 9 -313 45 -489 106 -510 384 -982
780 -1323 353 -304 762 -491 1230 -565 160 -25 519 -25 680 0 527 82 983 311
1355 682 367 365 599 827 682 1355 25 161 25 519 0 680 -83 529 -314 987 -682
1355 -367 368 -825 599 -1345 680 -101 16 -458 28 -545 19z m386 -324 c429
-42 826 -209 1159 -488 332 -277 587 -700 680 -1127 101 -464 47 -931 -156
-1354 -202 -421 -524 -750 -939 -958 -591 -298 -1290 -297 -1876 3 -640 327
-1059 944 -1129 1663 -66 683 230 1384 766 1811 423 337 968 501 1495 450z"/>
<path d="M2372 3704 c-18 -10 -45 -33 -60 -52 -24 -32 -27 -45 -30 -132 l-4
-96 -66 -18 c-154 -41 -292 -143 -355 -263 -57 -110 -69 -214 -41 -351 24
-120 65 -195 153 -283 93 -91 174 -136 386 -209 282 -97 369 -153 395 -252 17
-60 8 -138 -19 -176 -85 -120 -364 -149 -521 -54 -51 31 -90 96 -90 150 0 41
-31 100 -68 127 -16 12 -47 21 -82 23 -60 4 -104 -17 -143 -69 -40 -55 -31
-189 21 -299 55 -119 210 -236 365 -277 l65 -17 4 -97 c2 -80 7 -103 24 -126
75 -100 201 -98 271 6 20 29 23 47 23 127 0 87 2 94 20 94 32 0 179 57 230 90
61 39 152 134 179 188 70 138 66 328 -10 489 -23 49 -54 90 -108 144 -94 93
-173 135 -401 214 -190 66 -271 104 -318 149 -46 42 -61 75 -68 145 -15 138
83 221 282 238 136 11 291 -44 329 -117 9 -17 20 -57 26 -88 16 -99 68 -147
159 -147 130 0 183 99 146 268 -20 91 -69 171 -147 241 -58 53 -186 119 -267
137 l-50 12 -4 98 c-3 105 -14 130 -70 172 -36 27 -114 32 -156 11z"/>
</g>
</svg>
