<?xml version="1.0" standalone="no"?>
<!DOCTYPE svg PUBLIC "-//W3C//DTD SVG 20010904//EN"
 "http://www.w3.org/TR/2001/REC-SVG-20010904/DTD/svg10.dtd">
<svg version="1.0" xmlns="http://www.w3.org/2000/svg"
 width="426.000000pt" height="426.000000pt" viewBox="0 0 426.000000 426.000000"
 preserveAspectRatio="xMidYMid meet">

<g transform="translate(0.000000,426.000000) scale(0.100000,-0.100000)"
fill="#000000" stroke="none">
<path d="M1920 4199 c-390 -39 -782 -200 -1094 -449 -536 -427 -832 -1128
-766 -1811 90 -923 763 -1670 1663 -1848 686 -136 1385 76 1877 569 557 556
751 1381 503 2130 -115 347 -348 693 -623 922 -440 368 -1000 543 -1560 487z
m298 -816 c56 -42 67 -67 70 -172 l4 -98 50 -12 c81 -18 209 -84 267 -137 78
-70 127 -150 147 -241 37 -169 -16 -268 -146 -268 -91 0 -143 48 -159 147 -6
31 -17 71 -26 88 -38 73 -193 128 -329 117 -199 -17 -297 -100 -282 -238 14
-139 77 -187 386 -294 228 -79 307 -121 401 -214 54 -54 85 -95 108 -144 76
-161 80 -351 10 -489 -27 -54 -118 -149 -179 -188 -51 -33 -198 -90 -230 -90
-18 0 -20 -7 -20 -94 0 -80 -3 -98 -23 -127 -70 -104 -196 -106 -271 -6 -17
23 -22 46 -24 126 l-4 97 -65 17 c-155 41 -310 158 -365 277 -52 110 -61 244
-21 299 39 52 83 73 143 69 35 -2 66 -11 82 -23 37 -27 68 -86 68 -127 0 -54
39 -119 90 -150 157 -95 436 -66 521 54 27 38 36 116 19 176 -26 99 -113 155
-395 252 -212 73 -293 118 -386 209 -88 88 -129 163 -153 283 -28 137 -16 241
41 351 63 120 201 222 355 263 l66 18 4 96 c3 87 6 100 30 132 15 19 42 42 60
52 42 21 120 16 156 -11z"/>
</g>
</svg>
