<?xml version="1.0" standalone="no"?>
<!DOCTYPE svg PUBLIC "-//W3C//DTD SVG 20010904//EN"
 "http://www.w3.org/TR/2001/REC-SVG-20010904/DTD/svg10.dtd">
<svg version="1.0" xmlns="http://www.w3.org/2000/svg"
 width="433.000000pt" height="434.000000pt" viewBox="0 0 433.000000 434.000000"
 preserveAspectRatio="xMidYMid meet">

<g transform="translate(0.000000,434.000000) scale(0.100000,-0.100000)"
fill="#000000" stroke="none">
<path d="M1970 4289 c-563 -58 -1100 -341 -1436 -757 -96 -118 -107 -132 -163
-221 -281 -449 -389 -991 -300 -1511 18 -109 76 -320 105 -385 7 -16 24 -57
38 -91 54 -132 131 -263 267 -459 66 -95 277 -303 409 -404 105 -80 313 -198
465 -263 91 -39 309 -104 405 -122 249 -45 545 -47 780 -6 239 42 565 169 760
295 518 334 845 826 962 1444 30 155 32 530 5 686 -56 317 -169 607 -334 853
-35 52 -63 99 -63 104 0 5 28 55 62 111 138 229 154 282 119 396 -48 159 -216
253 -373 207 -80 -23 -145 -79 -208 -181 -29 -47 -59 -84 -65 -81 -6 2 -45 26
-87 53 -119 78 -330 177 -493 232 -276 92 -580 128 -855 100z m360 -334 c74
-8 170 -22 212 -31 105 -21 294 -86 403 -139 80 -39 256 -143 278 -165 8 -7
-34 -81 -165 -283 -92 -142 -321 -504 -428 -676 -25 -39 -81 -128 -125 -196
-44 -68 -105 -163 -135 -211 -158 -249 -257 -404 -275 -428 l-20 -26 -185 181
c-102 100 -288 283 -415 407 -263 257 -290 275 -410 276 -101 1 -146 -16 -208
-77 -66 -64 -97 -138 -97 -230 0 -84 35 -154 144 -287 47 -58 101 -123 119
-145 65 -80 370 -452 417 -510 43 -52 151 -185 353 -434 107 -133 136 -158
203 -185 84 -34 153 -34 237 -1 80 32 129 82 198 200 28 50 67 116 85 148 19
31 49 83 68 115 18 31 57 98 86 147 30 50 69 117 87 150 19 33 46 80 62 105
15 25 56 95 91 155 35 61 105 180 155 265 50 85 101 171 112 190 31 55 249
426 303 515 26 44 64 112 85 150 21 39 56 96 78 128 l39 59 25 -37 c44 -65
140 -277 171 -380 136 -445 99 -914 -104 -1328 -102 -208 -187 -328 -359 -499
-184 -185 -443 -339 -720 -430 -315 -103 -763 -102 -1061 2 -49 17 -109 38
-133 47 -60 20 -149 66 -256 130 -235 142 -359 256 -554 514 -29 37 -113 187
-151 265 -126 266 -187 607 -162 898 16 180 34 267 83 417 134 408 388 738
741 962 165 105 423 209 601 243 102 20 276 42 342 43 28 0 111 -6 185 -14z"/>
</g>
</svg>
