<?xml version="1.0" standalone="no"?>
<!DOCTYPE svg PUBLIC "-//W3C//DTD SVG 20010904//EN"
 "http://www.w3.org/TR/2001/REC-SVG-20010904/DTD/svg10.dtd">
<svg version="1.0" xmlns="http://www.w3.org/2000/svg"
 width="162.000000pt" height="149.000000pt" viewBox="0 0 162.000000 149.000000"
 preserveAspectRatio="xMidYMid meet">

<g transform="translate(0.000000,149.000000) scale(0.100000,-0.100000)"
fill="#000000" stroke="none">
<path d="M483 1456 c-54 -17 -100 -46 -140 -88 -40 -43 -282 -459 -300 -517
-17 -56 -17 -145 0 -202 19 -62 253 -465 300 -516 22 -24 65 -55 96 -70 l56
-28 315 0 315 0 55 27 c30 15 72 44 92 65 44 46 286 460 305 522 17 56 17 145
0 202 -19 62 -261 476 -305 522 -20 21 -62 50 -92 65 l-55 27 -300 2 c-227 2
-310 -1 -342 -11z m644 -120 c64 -30 77 -48 227 -309 120 -210 135 -249 122
-320 -10 -55 -250 -466 -295 -508 -61 -55 -88 -59 -377 -59 -251 0 -261 1
-309 24 -27 13 -60 34 -71 47 -24 27 -237 391 -265 454 -25 55 -24 120 5 180
13 28 71 133 130 235 110 191 156 248 218 267 19 7 142 11 298 12 260 1 266 0
317 -23z"/>
</g>
</svg>
