<?xml version="1.0" standalone="no"?>
<!DOCTYPE svg PUBLIC "-//W3C//DTD SVG 20010904//EN"
 "http://www.w3.org/TR/2001/REC-SVG-20010904/DTD/svg10.dtd">
<svg version="1.0" xmlns="http://www.w3.org/2000/svg"
 width="160.000000pt" height="148.000000pt" viewBox="0 0 160.000000 148.000000"
 preserveAspectRatio="xMidYMid meet">

<g transform="translate(0.000000,148.000000) scale(0.100000,-0.100000)"
fill="#000000" stroke="none">
<path d="M485 1446 c-22 -7 -54 -20 -70 -28 -38 -20 -117 -104 -140 -148 -9
-18 -64 -112 -121 -208 -123 -205 -139 -246 -132 -341 6 -74 33 -144 97 -245
21 -34 68 -115 105 -181 76 -133 136 -203 211 -243 l50 -27 310 0 310 0 59 29
c77 38 120 83 180 186 245 427 231 396 231 501 0 100 -2 105 -175 400 -113
192 -158 247 -240 287 l-55 27 -290 2 c-215 2 -300 -1 -330 -11z"/>
</g>
</svg>
