<?xml version="1.0" standalone="no"?>
<!DOCTYPE svg PUBLIC "-//W3C//DTD SVG 20010904//EN"
 "http://www.w3.org/TR/2001/REC-SVG-20010904/DTD/svg10.dtd">
<svg version="1.0" xmlns="http://www.w3.org/2000/svg"
 width="94.000000pt" height="83.000000pt" viewBox="0 0 94.000000 83.000000"
 preserveAspectRatio="xMidYMid meet">

<g transform="translate(0.000000,83.000000) scale(0.100000,-0.100000)"
fill="#000000" stroke="none">
<path d="M238 603 c-120 -120 -218 -221 -218 -225 0 -4 23 -8 50 -8 l50 0 0
-158 c0 -112 4 -163 13 -175 11 -15 28 -17 132 -15 l120 3 3 148 3 147 84 0
84 0 3 -147 3 -148 120 -3 c104 -2 121 0 132 15 9 12 13 63 13 175 l0 158 50
0 c28 0 50 4 50 8 0 17 -437 442 -455 442 -11 0 -107 -87 -237 -217z m552
-181 c-19 -3 -20 -10 -20 -173 l0 -169 -75 0 -75 0 0 150 0 150 -145 0 -145 0
0 -150 0 -150 -75 0 -75 0 0 170 c0 169 0 170 -22 170 -18 0 15 38 147 170
l170 170 168 -167 c133 -133 163 -169 147 -171z"/>
</g>
</svg>
