<?xml version="1.0" standalone="no"?>
<!DOCTYPE svg PUBLIC "-//W3C//DTD SVG 20010904//EN"
 "http://www.w3.org/TR/2001/REC-SVG-20010904/DTD/svg10.dtd">
<svg version="1.0" xmlns="http://www.w3.org/2000/svg"
 width="84.000000pt" height="87.000000pt" viewBox="0 0 84.000000 87.000000"
 preserveAspectRatio="xMidYMid meet">

<g transform="translate(0.000000,87.000000) scale(0.100000,-0.100000)"
fill="#000000" stroke="none">
<path d="M84 853 c-12 -2 -32 -15 -45 -29 l-24 -26 0 -320 0 -320 28 -24 c27
-23 35 -24 158 -24 l130 0 -23 30 c-21 30 -23 30 -114 30 -51 0 -99 3 -108 6
-14 5 -16 41 -16 299 0 198 3 296 11 300 6 4 8 12 6 19 -6 15 581 10 600 -6
10 -8 13 -45 13 -142 l0 -132 31 -30 30 -29 -3 178 -3 179 -28 24 -28 24 -297
-1 c-163 -1 -307 -4 -318 -6z"/>
<path d="M130 650 l0 -40 255 0 255 0 0 40 0 40 -255 0 -255 0 0 -40z"/>
<path d="M130 485 l0 -35 83 0 c82 0 84 1 117 35 l34 35 -117 0 -117 0 0 -35z"/>
<path d="M455 464 c-96 -50 -131 -154 -84 -252 39 -80 132 -118 219 -88 l45
15 63 -62 62 -61 27 27 27 27 -64 65 c-60 60 -63 66 -52 90 16 35 15 120 -2
153 -19 36 -65 78 -99 91 -41 16 -107 13 -142 -5z m148 -90 c33 -32 41 -57 33
-98 -18 -97 -156 -114 -202 -25 -36 70 18 149 100 149 33 0 49 -6 69 -26z"/>
<path d="M130 320 l0 -40 65 0 65 0 0 40 0 40 -65 0 -65 0 0 -40z"/>
</g>
</svg>
