<?xml version="1.0" standalone="no"?>
<!DOCTYPE svg PUBLIC "-//W3C//DTD SVG 20010904//EN"
 "http://www.w3.org/TR/2001/REC-SVG-20010904/DTD/svg10.dtd">
<svg version="1.0" xmlns="http://www.w3.org/2000/svg"
 width="84.000000pt" height="88.000000pt" viewBox="0 0 84.000000 88.000000"
 preserveAspectRatio="xMidYMid meet">

<g transform="translate(0.000000,88.000000) scale(0.100000,-0.100000)"
fill="#000000" stroke="none">
<path d="M68 853 c-52 -27 -53 -34 -53 -370 0 -388 -16 -357 181 -361 l136 -4
-25 34 c-14 18 -31 54 -38 80 l-13 47 -65 3 -66 3 -3 43 -3 42 70 0 71 0 15
36 c8 20 15 38 15 40 0 2 -37 4 -82 6 l-83 3 -3 43 -3 42 128 0 c106 0 137 4
183 21 42 16 70 20 120 17 74 -6 113 -23 171 -75 l40 -37 -3 178 -3 178 -28
24 -28 24 -302 -1 c-242 -1 -307 -4 -329 -16z m580 -190 l3 -43 -265 0 -266 0
0 38 c0 21 3 42 7 45 4 4 122 6 262 5 l256 -3 3 -42z"/>
<path d="M455 474 c-96 -50 -131 -154 -84 -252 30 -61 85 -96 153 -96 29 -1
65 5 80 13 26 14 28 13 91 -49 l65 -64 27 27 27 27 -64 65 c-60 60 -63 66 -52
90 16 35 15 120 -2 153 -19 36 -65 78 -99 91 -41 16 -107 13 -142 -5z m139
-79 c51 -34 58 -115 14 -162 -68 -72 -202 -5 -184 93 14 69 109 108 170 69z"/>
</g>
</svg>
