<?xml version="1.0" standalone="no"?>
<!DOCTYPE svg PUBLIC "-//W3C//DTD SVG 20010904//EN"
 "http://www.w3.org/TR/2001/REC-SVG-20010904/DTD/svg10.dtd">
<svg version="1.0" xmlns="http://www.w3.org/2000/svg"
 width="306.000000pt" height="306.000000pt" viewBox="0 0 306.000000 306.000000"
 preserveAspectRatio="xMidYMid meet">

<g transform="translate(0.000000,306.000000) scale(0.100000,-0.100000)"
fill="#000000" stroke="none">
<path d="M1320 3019 c-334 -54 -618 -197 -850 -429 -235 -235 -377 -519 -430
-860 -13 -86 -13 -313 1 -403 84 -560 450 -1010 983 -1211 150 -57 322 -86
506 -86 143 0 211 8 351 40 346 80 689 317 888 614 179 269 261 533 261 846 0
227 -42 418 -138 630 -16 36 -38 80 -50 99 l-20 33 -92 -91 -92 -91 38 -88
c195 -454 104 -978 -233 -1342 -306 -330 -787 -472 -1218 -360 -444 115 -784
453 -902 895 -108 407 3 851 292 1163 358 386 923 506 1407 298 l88 -38 91 92
91 92 -33 20 c-127 78 -335 148 -529 178 -78 12 -333 11 -410 -1z"/>
<path d="M2423 2743 l-253 -252 0 -108 0 -108 -259 -259 -260 -260 -39 12
c-167 50 -332 -67 -332 -235 0 -142 110 -253 250 -253 138 0 250 111 250 246
0 32 -5 73 -12 91 l-12 34 259 259 260 260 108 0 108 0 252 253 252 252 -157
3 -157 3 -3 157 -3 157 -252 -252z"/>
<path d="M1445 2403 c-217 -28 -395 -114 -537 -259 -169 -172 -250 -372 -251
-614 -1 -240 82 -442 251 -614 168 -172 378 -259 622 -259 244 0 454 87 622
259 268 273 331 676 158 1014 l-22 43 -94 -94 c-65 -65 -92 -99 -88 -109 23
-50 44 -166 44 -237 1 -348 -273 -623 -620 -623 -345 0 -620 275 -620 620 0
406 384 704 775 601 39 -10 77 -21 85 -25 10 -4 44 23 110 89 l94 94 -77 36
c-141 65 -317 96 -452 78z"/>
</g>
</svg>
